<svg xmlns="http://www.w3.org/2000/svg" xmlns:xlink="http://www.w3.org/1999/xlink" width="985pt" height="1284" viewBox="0 0 985 963"><g id="graph0" class="graph" transform="scale(1 1) rotate(0) translate(4 959)"><title>G</title><polygon fill="#fff" stroke="none" points="-4 4 -4 -959 981 -959 981 4 -4 4"/><text x="488.5" y="-7.8" font-family="Times,serif" font-size="14" text-anchor="middle">Last updated 2017-07-13</text><g id="clust1" class="cluster"><title>cluster_Prow</title><polygon fill="none" stroke="#00f" points="218 -406 218 -751 896 -751 896 -406 218 -406"/><text x="557" y="-735.8" font-family="Times,serif" font-size="14" text-anchor="middle">Prow</text></g><g id="clust2" class="cluster"><title>cluster_legend</title><polygon fill="none" stroke="#000" points="219 -31 219 -136 407 -136 407 -31 219 -31"/><text x="313" y="-120.8" font-family="Times,serif" font-size="14" text-anchor="middle">Legend</text></g><g id="node1" class="node"><title>legend_ext</title><polygon fill="gray" stroke="#000" points="398.5 -103 337.5 -103 337.5 -41 398.5 -41 398.5 -103"/><text x="368" y="-75.8" font-family="Times,serif" font-size="14" text-anchor="middle">External</text><text x="368" y="-60.8" font-family="Times,serif" font-size="14" text-anchor="middle">Service</text></g><g id="node2" class="node"><title>GCS</title><polygon fill="gray" stroke="#000" points="389.25 -318.5 346.75 -318.5 346.75 -275.5 389.25 -275.5 389.25 -318.5"/><text x="368" y="-293.3" font-family="Times,serif" font-size="14" text-anchor="middle">GCS</text></g><g id="node3" class="node"><title>PubSub</title><polygon fill="gray" stroke="#000" points="267.25 -223.5 208.75 -223.5 208.75 -164.5 267.25 -164.5 267.25 -223.5"/><text x="238" y="-190.3" font-family="Times,serif" font-size="14" text-anchor="middle">PubSub</text></g><g id="edge18" class="edge"><title>GCS-&gt;PubSub</title><path fill="none" stroke="#000" d="M346.533,-279.322C327.18,-264.286 298.298,-241.847 275.193,-223.896"/><polygon fill="#000" stroke="#000" points="277.33 -221.124 267.286 -217.753 273.035 -226.652 277.33 -221.124"/></g><g id="node10" class="node"><title>Testgrid</title><g id="a_node10"><a xlink:href="https://testgrid.k8s.io" xlink:title="Testgrid"><polygon fill="#add8e6" stroke="#000" points="417.216 -199.562 368 -212 318.784 -199.562 318.83 -179.438 417.17 -179.438 417.216 -199.562"/><text x="368" y="-190.3" font-family="Times,serif" font-size="14" text-anchor="middle">Testgrid</text></a></g></g><g id="edge23" class="edge"><title>GCS-&gt;Testgrid</title><path fill="none" stroke="#000" d="M368,-264.837C368,-247.51 368,-226.606 368,-212.21"/><polygon fill="#000" stroke="#000" points="364.5 -265.073 368 -275.073 371.5 -265.073 364.5 -265.073"/></g><g id="node11" class="node"><title>Gubernator</title><g id="a_node11"><a xlink:href="https://gubernator.k8s.io" xlink:title="Gubernator"><polygon fill="#add8e6" stroke="#000" points="772.494 -199.562 710 -212 647.506 -199.562 647.564 -179.438 772.436 -179.438 772.494 -199.562"/><text x="710" y="-190.3" font-family="Times,serif" font-size="14" text-anchor="middle">Gubernator</text></a></g></g><g id="edge7" class="edge"><title>GCS-&gt;Gubernator</title><path fill="none" stroke="#000" d="M399.298,-286.757C463.299,-267.856 608.715,-224.912 675.407,-205.216"/><polygon fill="#000" stroke="#000" points="397.993 -283.493 389.394 -289.682 399.975 -290.206 397.993 -283.493"/></g><g id="node4" class="node"><title>GitHub</title><polygon fill="gray" stroke="#000" points="741.25 -954.5 684.75 -954.5 684.75 -897.5 741.25 -897.5 741.25 -954.5"/><text x="713" y="-922.3" font-family="Times,serif" font-size="14" text-anchor="middle">GitHub</text></g><g id="node8" class="node"><title>Mungegithub</title><g id="a_node8"><a xlink:href="https://submit-queue.k8s.io" xlink:title="Mungegithub"><polygon fill="#add8e6" stroke="#000" points="681.956 -846.562 610 -859 538.044 -846.562 538.111 -826.438 681.889 -826.438 681.956 -846.562"/><text x="610" y="-837.3" font-family="Times,serif" font-size="14" text-anchor="middle">Mungegithub</text></a></g></g><g id="edge3" class="edge"><title>GitHub-&gt;Mungegithub</title><path fill="none" stroke="#000" d="M676.641,-895.701C663.134,-884.817 648.102,-872.703 635.738,-862.74"/><polygon fill="#000" stroke="#000" points="674.599 -898.551 684.582 -902.1 678.992 -893.1 674.599 -898.551"/><polygon fill="#000" stroke="#000" points="637.639 -859.777 627.656 -856.228 633.246 -865.228 637.639 -859.777"/></g><g id="edge2" class="edge"><title>GitHub-&gt;Gubernator</title><path fill="none" stroke="#000" d="M741.622,-919.85C798.862,-908.732 922,-880.358 922,-842 922,-842 922,-842 922,-296 922,-232.665 843.929,-209.004 782.541,-200.19"/><polygon fill="#000" stroke="#000" points="782.834 -196.698 772.46 -198.852 781.913 -203.637 782.834 -196.698"/><text x="949.5" y="-568.3" font-family="Times,serif" font-size="14" text-anchor="middle">PR events</text></g><g id="node12" class="node"><title>Hook</title><ellipse cx="793" cy="-687" fill="none" stroke="#000" rx="95.189" ry="26.741"/><text x="793" y="-690.8" font-family="Times,serif" font-size="14" text-anchor="middle">Hook</text><text x="793" y="-675.8" font-family="Times,serif" font-size="14" text-anchor="middle">handle GitHub events</text></g><g id="edge5" class="edge"><title>GitHub-&gt;Hook</title><path fill="none" stroke="#000" d="M722.334,-897.349C736.879,-854.258 764.945,-771.113 780.983,-723.599"/><polygon fill="#000" stroke="#000" points="784.332 -724.623 784.214 -714.029 777.699 -722.384 784.332 -724.623"/><text x="764.5" y="-837.3" font-family="Times,serif" font-size="14" text-anchor="middle">events</text></g><g id="node5" class="node"><title>BigQuery</title><g id="a_node5"><a xlink:href="https://bigquery.cloud.google.com/table/k8s-gubernator:build.week" xlink:title="BigQuery"><polygon fill="gray" stroke="#000" points="140 -332 70 -332 70 -262 140 -262 140 -332"/><text x="105" y="-293.3" font-family="Times,serif" font-size="14" text-anchor="middle">BigQuery</text></a></g></g><g id="node7" class="node"><title>Triage</title><g id="a_node7"><a xlink:href="https://go.k8s.io/triage" xlink:title="Triage"><polygon fill="#add8e6" stroke="#000" points="146.166 -199.562 105 -212 63.834 -199.562 63.872 -179.438 146.128 -179.438 146.166 -199.562"/><text x="105" y="-190.3" font-family="Times,serif" font-size="14" text-anchor="middle">Triage</text></a></g></g><g id="edge22" class="edge"><title>BigQuery-&gt;Triage</title><path fill="none" stroke="#000" d="M105,-251.772C105,-237.747 105,-223.066 105,-212.148"/><polygon fill="#000" stroke="#000" points="101.5 -251.806 105 -261.806 108.5 -251.806 101.5 -251.806"/></g><g id="node6" class="node"><title>legend_site</title><polygon fill="#add8e6" stroke="#000" points="318.987 -82.33 273 -105.428 227.013 -82.33 227.056 -44.956 318.944 -44.956 318.987 -82.33"/><text x="273" y="-75.8" font-family="Times,serif" font-size="14" text-anchor="middle">Serves</text><text x="273" y="-60.8" font-family="Times,serif" font-size="14" text-anchor="middle">HTTP</text></g><g id="node9" class="node"><title>Deck</title><g id="a_node9"><a xlink:href="https://prow.k8s.io" xlink:title="Deck\nfrontend"><polygon fill="#add8e6" stroke="#000" points="522.285 -697.33 468 -720.428 413.715 -697.33 413.765 -659.956 522.235 -659.956 522.285 -697.33"/><text x="468" y="-690.8" font-family="Times,serif" font-size="14" text-anchor="middle">Deck</text><text x="468" y="-675.8" font-family="Times,serif" font-size="14" text-anchor="middle">frontend</text></a></g></g><g id="edge6" class="edge"><title>Mungegithub-&gt;Deck</title><path fill="none" stroke="#000" d="M596.351,-826.113C590.109,-819.72 582.64,-812.012 576,-805 548.677,-776.147 517.986,-742.806 496.324,-719.115"/><polygon fill="#000" stroke="#000" points="498.67 -716.494 489.342 -711.471 493.502 -721.215 498.67 -716.494"/><text x="591" y="-793.3" font-family="Times,serif" font-size="14" text-anchor="middle">read</text><text x="591" y="-778.3" font-family="Times,serif" font-size="14" text-anchor="middle">batch</text><text x="591" y="-763.3" font-family="Times,serif" font-size="14" text-anchor="middle">jobs</text></g><g id="node13" class="node"><title>Splice</title><ellipse cx="610" cy="-687" fill="none" stroke="#000" rx="70.005" ry="26.741"/><text x="610" y="-690.8" font-family="Times,serif" font-size="14" text-anchor="middle">Splice</text><text x="610" y="-675.8" font-family="Times,serif" font-size="14" text-anchor="middle">start batch jobs</text></g><g id="edge4" class="edge"><title>Mungegithub-&gt;Splice</title><path fill="none" stroke="#000" d="M610,-816.21C610,-788.417 610,-742.594 610,-713.917"/><polygon fill="#000" stroke="#000" points="606.5 -816.243 610 -826.243 613.5 -816.243 606.5 -816.243"/><text x="626.5" y="-785.8" font-family="Times,serif" font-size="14" text-anchor="middle">read</text><text x="626.5" y="-770.8" font-family="Times,serif" font-size="14" text-anchor="middle">queue</text></g><g id="node19" class="node"><title>ApiServer</title><polygon fill="none" stroke="#000" points="543.325 -565.403 531.179 -590.485 482 -601.648 432.821 -590.485 420.675 -565.403 454.708 -545.288 509.292 -545.288 543.325 -565.403"/><text x="482" y="-575.8" font-family="Times,serif" font-size="14" text-anchor="middle">Kubernetes</text><text x="482" y="-560.8" font-family="Times,serif" font-size="14" text-anchor="middle">API Server</text></g><g id="edge13" class="edge"><title>Deck-&gt;ApiServer</title><path fill="none" stroke="#000" d="M471.247,-659.792C473.036,-645.351 475.29,-627.163 477.271,-611.171"/><polygon fill="#000" stroke="#000" points="480.77 -611.396 478.526 -601.041 473.823 -610.535 480.77 -611.396"/><text x="488" y="-624.3" font-family="Times,serif" font-size="14" text-anchor="middle">read</text></g><g id="edge14" class="edge"><title>Hook-&gt;ApiServer</title><path fill="none" stroke="#000" d="M736.319,-665.405C680.671,-645.186 596.193,-614.491 540.07,-594.099"/><polygon fill="#000" stroke="#000" points="541.22 -590.793 530.626 -590.668 538.829 -597.373 541.22 -590.793"/><text x="689" y="-624.3" font-family="Times,serif" font-size="14" text-anchor="middle">create ProwJob</text></g><g id="edge12" class="edge"><title>Splice-&gt;ApiServer</title><path fill="none" stroke="#000" d="M582.854,-662.036C563.333,-644.802 536.872,-621.441 515.951,-602.973"/><polygon fill="#000" stroke="#000" points="518.044 -600.151 508.231 -596.157 513.411 -605.399 518.044 -600.151"/></g><g id="node14" class="node"><title>Plank</title><ellipse cx="311" cy="-687" fill="none" stroke="#000" rx="84.28" ry="26.741"/><text x="311" y="-690.8" font-family="Times,serif" font-size="14" text-anchor="middle">Plank</text><text x="311" y="-675.8" font-family="Times,serif" font-size="14" text-anchor="middle">ProwJob controller</text></g><g id="edge9" class="edge"><title>Plank-&gt;GitHub</title><path fill="none" stroke="#000" d="M321.869,-713.647C339.315,-751.58 377.256,-822.12 432,-859 507.317,-909.739 616.814,-921.716 674.357,-924.384"/><polygon fill="#000" stroke="#000" points="674.347 -927.886 684.477 -924.781 674.622 -920.891 674.347 -927.886"/><text x="480.5" y="-844.8" font-family="Times,serif" font-size="14" text-anchor="middle">update PR status</text><text x="480.5" y="-829.8" font-family="Times,serif" font-size="14" text-anchor="middle">comment failures</text></g><g id="node15" class="node"><title>Tot</title><ellipse cx="314" cy="-572" fill="none" stroke="#000" rx="88.083" ry="26.741"/><text x="314" y="-575.8" font-family="Times,serif" font-size="14" text-anchor="middle">Tot</text><text x="314" y="-560.8" font-family="Times,serif" font-size="14" text-anchor="middle">vend build numbers</text></g><g id="edge11" class="edge"><title>Plank-&gt;Tot</title><path fill="none" stroke="#000" d="M311.688,-660.076C312.086,-645.109 312.592,-626.047 313.029,-609.576"/><polygon fill="#000" stroke="#000" points="316.538 -609.285 313.305 -599.195 309.54 -609.099 316.538 -609.285"/></g><g id="edge10" class="edge"><title>Plank-&gt;ApiServer</title><path fill="none" stroke="#000" d="M346.431,-662.586C373.914,-644.425 412.054,-619.222 440.881,-600.172"/><polygon fill="#000" stroke="#000" points="443.093 -602.906 449.506 -594.473 439.234 -597.066 443.093 -602.906"/></g><g id="node16" class="node"><title>Sinker</title><ellipse cx="482" cy="-452" fill="none" stroke="#000" rx="68.946" ry="37.453"/><text x="482" y="-463.3" font-family="Times,serif" font-size="14" text-anchor="middle">Sinker</text><text x="482" y="-448.3" font-family="Times,serif" font-size="14" text-anchor="middle">deletes old</text><text x="482" y="-433.3" font-family="Times,serif" font-size="14" text-anchor="middle">pods/ProwJobs</text></g><g id="node17" class="node"><title>Horologium</title><ellipse cx="677" cy="-452" fill="none" stroke="#000" rx="108.281" ry="26.741"/><text x="677" y="-455.8" font-family="Times,serif" font-size="14" text-anchor="middle">Horologium</text><text x="677" y="-440.8" font-family="Times,serif" font-size="14" text-anchor="middle">create periodic ProwJobs</text></g><g id="node18" class="node"><title>Job</title><ellipse cx="368" cy="-452" fill="none" stroke="#000" rx="27" ry="18"/><text x="368" y="-448.3" font-family="Times,serif" font-size="14" text-anchor="middle">Job</text></g><g id="edge8" class="edge"><title>Job-&gt;GCS</title><path fill="none" stroke="#000" d="M368,-433.746C368,-408.259 368,-360.163 368,-328.603"/><polygon fill="#000" stroke="#000" points="371.5 -328.59 368 -318.59 364.5 -328.59 371.5 -328.59"/><text x="440" y="-384.3" font-family="Times,serif" font-size="14" text-anchor="middle">publish</text><text x="440" y="-369.3" font-family="Times,serif" font-size="14" text-anchor="middle">started.json, finished.json,</text><text x="440" y="-354.3" font-family="Times,serif" font-size="14" text-anchor="middle">build-log.txt, artifacts/</text></g><g id="edge16" class="edge"><title>ApiServer-&gt;Sinker</title><path fill="none" stroke="#000" d="M482,-535.056C482,-520.644 482,-504.053 482,-489.578"/><polygon fill="#000" stroke="#000" points="478.5 -535.104 482 -545.104 485.5 -535.104 478.5 -535.104"/></g><g id="edge17" class="edge"><title>ApiServer-&gt;Horologium</title><path fill="none" stroke="#000" d="M525.959,-544.399C559.365,-524.184 604.926,-496.614 637.249,-477.055"/><polygon fill="#000" stroke="#000" points="524.057 -541.459 517.313 -549.631 527.681 -547.448 524.057 -541.459"/></g><g id="edge15" class="edge"><title>ApiServer-&gt;Job</title><path fill="none" stroke="#000" d="M452.741,-546.32C444.836,-539.314 436.42,-531.537 429,-524 413.942,-508.704 398.185,-490.292 386.458,-476.051"/><polygon fill="#000" stroke="#000" points="389.088 -473.739 380.054 -468.204 383.665 -478.164 389.088 -473.739"/><text x="453.5" y="-512.3" font-family="Times,serif" font-size="14" text-anchor="middle">start Pod</text></g><g id="node20" class="node"><title>Kettle</title><ellipse cx="105" cy="-452" fill="none" stroke="#000" rx="105.039" ry="26.741"/><text x="105" y="-455.8" font-family="Times,serif" font-size="14" text-anchor="middle">Kettle</text><text x="105" y="-440.8" font-family="Times,serif" font-size="14" text-anchor="middle">get GCS results into BQ</text></g><g id="edge19" class="edge"><title>Kettle-&gt;GCS</title><path fill="none" stroke="#000" d="M155.202,-428.23C175.05,-418.798 197.882,-407.408 218,-396 261.099,-371.56 308.633,-339.596 338.4,-318.931"/><polygon fill="#000" stroke="#000" points="340.475 -321.751 346.674 -313.16 336.47 -316.01 340.475 -321.751"/><text x="302" y="-369.3" font-family="Times,serif" font-size="14" text-anchor="middle">read</text></g><g id="edge20" class="edge"><title>Kettle-&gt;PubSub</title><path fill="none" stroke="#000" d="M120.468,-425.166C125.827,-416.021 131.792,-405.617 137,-396 167.45,-339.767 200.268,-273.236 219.967,-232.588"/><polygon fill="#000" stroke="#000" points="223.122 -234.103 224.325 -223.577 216.82 -231.056 223.122 -234.103"/><text x="218" y="-293.3" font-family="Times,serif" font-size="14" text-anchor="middle">read</text></g><g id="edge21" class="edge"><title>Kettle-&gt;BigQuery</title><path fill="none" stroke="#000" d="M105,-425.046C105,-402.466 105,-369.252 105,-342.447"/><polygon fill="#000" stroke="#000" points="108.5 -342.152 105 -332.152 101.5 -342.152 108.5 -342.152"/><text x="119" y="-369.3" font-family="Times,serif" font-size="14" text-anchor="middle">write</text></g></g></svg>