<svg xmlns="http://www.w3.org/2000/svg" id="mermaid-1555617348073" width="100%" height="100%" viewBox="-50 -10 2650 1396" style="max-width:2650px"><style>#mermaid-1555617348073 .actor{stroke:#ccf;fill:#ececff}#mermaid-1555617348073 text.actor{fill:#000;stroke:none}#mermaid-1555617348073 .actor-line{stroke:gray}#mermaid-1555617348073 .messageLine0{stroke-width:1.5;stroke-dasharray:&apos;2 2&apos;;stroke:#333}#mermaid-1555617348073 #arrowhead{fill:#333}#mermaid-1555617348073 #crosshead path{fill:#333!important;stroke:#333!important}#mermaid-1555617348073 .messageText{fill:#333;stroke:none}</style><style>#mermaid-1555617348073{color:rgba(0,0,0,.65)}</style><g><line id="actor0" x1="75" x2="75" y1="5" y2="1385" stroke="#999" stroke-width=".5" class="actor-line"/><rect width="150" height="65" x="0" y="0" fill="#eaeaea" stroke="#666" class="actor" rx="3" ry="3"/><text x="75" y="32.5" alignment-baseline="central" class="actor" dominant-baseline="central" style="text-anchor:middle;font-size:14px;font-family:Open-Sans,sans-serif"><tspan x="75" dy="0">Contributor</tspan></text></g><g><line id="actor1" x1="275" x2="275" y1="5" y2="1385" stroke="#999" stroke-width=".5" class="actor-line"/><rect width="150" height="65" x="200" y="0" fill="#eaeaea" stroke="#666" class="actor" rx="3" ry="3"/><text x="275" y="32.5" alignment-baseline="central" class="actor" dominant-baseline="central" style="text-anchor:middle;font-size:14px;font-family:Open-Sans,sans-serif"><tspan x="275" dy="0">Reviewer</tspan></text></g><g><line id="actor2" x1="475" x2="475" y1="5" y2="1385" stroke="#999" stroke-width=".5" class="actor-line"/><rect width="150" height="65" x="400" y="0" fill="#eaeaea" stroke="#666" class="actor" rx="3" ry="3"/><text x="475" y="32.5" alignment-baseline="central" class="actor" dominant-baseline="central" style="text-anchor:middle;font-size:14px;font-family:Open-Sans,sans-serif"><tspan x="475" dy="0">Approver</tspan></text></g><g><line id="actor3" x1="675" x2="675" y1="5" y2="1385" stroke="#999" stroke-width=".5" class="actor-line"/><rect width="150" height="65" x="600" y="0" fill="#eaeaea" stroke="#666" class="actor" rx="3" ry="3"/><text x="675" y="32.5" alignment-baseline="central" class="actor" dominant-baseline="central" style="text-anchor:middle;font-size:14px;font-family:Open-Sans,sans-serif"><tspan x="675" dy="0">GitHub</tspan></text></g><g><line id="actor4" x1="875" x2="875" y1="5" y2="1385" stroke="#999" stroke-width=".5" class="actor-line"/><rect width="150" height="65" x="800" y="0" fill="#eaeaea" stroke="#666" class="actor" rx="3" ry="3"/><text x="875" y="32.5" alignment-baseline="central" class="actor" dominant-baseline="central" style="text-anchor:middle;font-size:14px;font-family:Open-Sans,sans-serif"><tspan x="875" dy="0">hook</tspan></text></g><g><line id="actor5" x1="1075" x2="1075" y1="5" y2="1385" stroke="#999" stroke-width=".5" class="actor-line"/><rect width="150" height="65" x="1000" y="0" fill="#eaeaea" stroke="#666" class="actor" rx="3" ry="3"/><text x="1075" y="32.5" alignment-baseline="central" class="actor" dominant-baseline="central" style="text-anchor:middle;font-size:14px;font-family:Open-Sans,sans-serif"><tspan x="1075" dy="-7">approve</tspan></text><text x="1075" y="32.5" alignment-baseline="central" class="actor" dominant-baseline="central" style="text-anchor:middle;font-size:14px;font-family:Open-Sans,sans-serif"><tspan x="1075" dy="7">(hook plugin)</tspan></text></g><g><line id="actor6" x1="1275" x2="1275" y1="5" y2="1385" stroke="#999" stroke-width=".5" class="actor-line"/><rect width="150" height="65" x="1200" y="0" fill="#eaeaea" stroke="#666" class="actor" rx="3" ry="3"/><text x="1275" y="32.5" alignment-baseline="central" class="actor" dominant-baseline="central" style="text-anchor:middle;font-size:14px;font-family:Open-Sans,sans-serif"><tspan x="1275" dy="-7">size</tspan></text><text x="1275" y="32.5" alignment-baseline="central" class="actor" dominant-baseline="central" style="text-anchor:middle;font-size:14px;font-family:Open-Sans,sans-serif"><tspan x="1275" dy="7">(hook plugin)</tspan></text></g><g><line id="actor7" x1="1475" x2="1475" y1="5" y2="1385" stroke="#999" stroke-width=".5" class="actor-line"/><rect width="150" height="65" x="1400" y="0" fill="#eaeaea" stroke="#666" class="actor" rx="3" ry="3"/><text x="1475" y="32.5" alignment-baseline="central" class="actor" dominant-baseline="central" style="text-anchor:middle;font-size:14px;font-family:Open-Sans,sans-serif"><tspan x="1475" dy="-7">cla</tspan></text><text x="1475" y="32.5" alignment-baseline="central" class="actor" dominant-baseline="central" style="text-anchor:middle;font-size:14px;font-family:Open-Sans,sans-serif"><tspan x="1475" dy="7">(hook plugin)</tspan></text></g><g><line id="actor8" x1="1675" x2="1675" y1="5" y2="1385" stroke="#999" stroke-width=".5" class="actor-line"/><rect width="150" height="65" x="1600" y="0" fill="#eaeaea" stroke="#666" class="actor" rx="3" ry="3"/><text x="1675" y="32.5" alignment-baseline="central" class="actor" dominant-baseline="central" style="text-anchor:middle;font-size:14px;font-family:Open-Sans,sans-serif"><tspan x="1675" dy="-7">lgtm</tspan></text><text x="1675" y="32.5" alignment-baseline="central" class="actor" dominant-baseline="central" style="text-anchor:middle;font-size:14px;font-family:Open-Sans,sans-serif"><tspan x="1675" dy="7">(hook plugin)</tspan></text></g><g><line id="actor9" x1="1875" x2="1875" y1="5" y2="1385" stroke="#999" stroke-width=".5" class="actor-line"/><rect width="150" height="65" x="1800" y="0" fill="#eaeaea" stroke="#666" class="actor" rx="3" ry="3"/><text x="1875" y="32.5" alignment-baseline="central" class="actor" dominant-baseline="central" style="text-anchor:middle;font-size:14px;font-family:Open-Sans,sans-serif"><tspan x="1875" dy="-7">trigger</tspan></text><text x="1875" y="32.5" alignment-baseline="central" class="actor" dominant-baseline="central" style="text-anchor:middle;font-size:14px;font-family:Open-Sans,sans-serif"><tspan x="1875" dy="7">(hook plugin)</tspan></text></g><g><line id="actor10" x1="2075" x2="2075" y1="5" y2="1385" stroke="#999" stroke-width=".5" class="actor-line"/><rect width="150" height="65" x="2000" y="0" fill="#eaeaea" stroke="#666" class="actor" rx="3" ry="3"/><text x="2075" y="32.5" alignment-baseline="central" class="actor" dominant-baseline="central" style="text-anchor:middle;font-size:14px;font-family:Open-Sans,sans-serif"><tspan x="2075" dy="0">tide</tspan></text></g><g><line id="actor11" x1="2275" x2="2275" y1="5" y2="1385" stroke="#999" stroke-width=".5" class="actor-line"/><rect width="150" height="65" x="2200" y="0" fill="#eaeaea" stroke="#666" class="actor" rx="3" ry="3"/><text x="2275" y="32.5" alignment-baseline="central" class="actor" dominant-baseline="central" style="text-anchor:middle;font-size:14px;font-family:Open-Sans,sans-serif"><tspan x="2275" dy="0">prowJob</tspan></text></g><g><line id="actor12" x1="2475" x2="2475" y1="5" y2="1385" stroke="#999" stroke-width=".5" class="actor-line"/><rect width="150" height="65" x="2400" y="0" fill="#eaeaea" stroke="#666" class="actor" rx="3" ry="3"/><text x="2475" y="32.5" alignment-baseline="central" class="actor" dominant-baseline="central" style="text-anchor:middle;font-size:14px;font-family:Open-Sans,sans-serif"><tspan x="2475" dy="-7">Kubernetes</tspan></text><text x="2475" y="32.5" alignment-baseline="central" class="actor" dominant-baseline="central" style="text-anchor:middle;font-size:14px;font-family:Open-Sans,sans-serif"><tspan x="2475" dy="7">API Server</tspan></text></g><defs><marker id="arrowhead" markerHeight="4" markerWidth="6" orient="auto" refX="5" refY="2"><path d="M 0,0 V 4 L6,2 Z"/></marker></defs><defs><marker id="crosshead" markerHeight="8" markerWidth="15" orient="auto" refX="16" refY="4"><path fill="#000" stroke="#000" stroke-width="1" d="M 9,2 V 6 L16,4 Z" style="stroke-dasharray:0,0"/><path fill="none" stroke="#000" stroke-width="1" d="M 0,1 L 6,7 M 6,1 L 0,7" style="stroke-dasharray:0,0"/></marker></defs><g><text x="375" y="93" class="messageText" style="text-anchor:middle">Creates Pull Request (PR)</text><line x1="75" x2="675" y1="100" y2="100" stroke="#000" stroke-width="2" marker-end="url(#arrowhead)" class="messageLine0" style="fill:none"/></g><g><text x="775" y="128" class="messageText" style="text-anchor:middle">Sends PR create webhook</text><line x1="675" x2="875" y1="135" y2="135" stroke="#000" stroke-width="2" marker-end="url(#arrowhead)" class="messageLine0" style="fill:none"/></g><g><text x="975" y="163" class="messageText" style="text-anchor:middle">Sends PR create webhook</text><line x1="875" x2="1075" y1="170" y2="170" stroke="#000" stroke-width="2" marker-end="url(#arrowhead)" class="messageLine0" style="fill:none"/></g><g><text x="1075" y="198" class="messageText" style="text-anchor:middle">Analyzes repository approvers</text><path stroke="#000" stroke-width="2" marker-end="url(#arrowhead)" d="M 1075,205 C 1135,195 1135,235 1075,225" class="messageLine0" style="fill:none"/></g><g><text x="875" y="263" class="messageText" style="text-anchor:middle">Create PR comment &quot;PR not approved&quot;</text><line x1="1075" x2="675" y1="270" y2="270" stroke="#000" stroke-width="2" marker-end="url(#arrowhead)" class="messageLine0" style="fill:none"/></g><g><text x="1075" y="298" class="messageText" style="text-anchor:middle">Send PR create webhook</text><line x1="875" x2="1275" y1="305" y2="305" stroke="#000" stroke-width="2" marker-end="url(#arrowhead)" class="messageLine0" style="fill:none"/></g><g><text x="1275" y="333" class="messageText" style="text-anchor:middle">Analyzes PR changed line count</text><path stroke="#000" stroke-width="2" marker-end="url(#arrowhead)" d="M 1275,340 C 1335,330 1335,370 1275,360" class="messageLine0" style="fill:none"/></g><g><text x="975" y="398" class="messageText" style="text-anchor:middle">Adds &quot;size/XS&quot; label to PR</text><line x1="1275" x2="675" y1="405" y2="405" stroke="#000" stroke-width="2" marker-end="url(#arrowhead)" class="messageLine0" style="fill:none"/></g><g><text x="1175" y="433" class="messageText" style="text-anchor:middle">Send PR create webhook</text><line x1="875" x2="1475" y1="440" y2="440" stroke="#000" stroke-width="2" marker-end="url(#arrowhead)" class="messageLine0" style="fill:none"/></g><g><text x="1475" y="468" class="messageText" style="text-anchor:middle">Analyzes if Contributor is CLA approved</text><path stroke="#000" stroke-width="2" marker-end="url(#arrowhead)" d="M 1475,475 C 1535,465 1535,505 1475,495" class="messageLine0" style="fill:none"/></g><g><text x="1075" y="533" class="messageText" style="text-anchor:middle">Adds &quot;cncf-cla: yes&quot; label to PR</text><line x1="1475" x2="675" y1="540" y2="540" stroke="#000" stroke-width="2" marker-end="url(#arrowhead)" class="messageLine0" style="fill:none"/></g><g><text x="775" y="568" class="messageText" style="text-anchor:middle">Adds Reviewers to PR</text><line x1="875" x2="675" y1="575" y2="575" stroke="#000" stroke-width="2" marker-end="url(#arrowhead)" class="messageLine0" style="fill:none"/></g><g><text x="475" y="603" class="messageText" style="text-anchor:middle">Requests Review (Normally an Email)</text><line x1="675" x2="275" y1="610" y2="610" stroke="#000" stroke-width="2" marker-end="url(#arrowhead)" class="messageLine0" style="fill:none"/></g><g><text x="475" y="638" class="messageText" style="text-anchor:middle">Requests PR Changes</text><line x1="275" x2="675" y1="645" y2="645" stroke="#000" stroke-width="2" marker-end="url(#arrowhead)" class="messageLine0" style="fill:none"/></g><g><text x="375" y="673" class="messageText" style="text-anchor:middle">Make Changes Reviewer Requested</text><line x1="75" x2="675" y1="680" y2="680" stroke="#000" stroke-width="2" marker-end="url(#arrowhead)" class="messageLine0" style="fill:none"/></g><g><text x="475" y="708" class="messageText" style="text-anchor:middle">Creates a &quot;/lgtm&quot; Comment</text><line x1="275" x2="675" y1="715" y2="715" stroke="#000" stroke-width="2" marker-end="url(#arrowhead)" class="messageLine0" style="fill:none"/></g><g><text x="775" y="743" class="messageText" style="text-anchor:middle">Sends comment Event</text><line x1="675" x2="875" y1="750" y2="750" stroke="#000" stroke-width="2" marker-end="url(#arrowhead)" class="messageLine0" style="fill:none"/></g><g><text x="1275" y="778" class="messageText" style="text-anchor:middle">Sends comment Event</text><line x1="875" x2="1675" y1="785" y2="785" stroke="#000" stroke-width="2" marker-end="url(#arrowhead)" class="messageLine0" style="fill:none"/></g><g><text x="1675" y="813" class="messageText" style="text-anchor:middle">Analyzes OWNERS files</text><path stroke="#000" stroke-width="2" marker-end="url(#arrowhead)" d="M 1675,820 C 1735,810 1735,850 1675,840" class="messageLine0" style="fill:none"/></g><g><text x="1175" y="878" class="messageText" style="text-anchor:middle">Adds &quot;lgtm&quot; label to PR</text><line x1="1675" x2="675" y1="885" y2="885" stroke="#000" stroke-width="2" marker-end="url(#arrowhead)" class="messageLine0" style="fill:none"/></g><g><text x="475" y="913" class="messageText" style="text-anchor:middle">Creates an &quot;/ok-to-test&quot; Comment</text><line x1="275" x2="675" y1="920" y2="920" stroke="#000" stroke-width="2" marker-end="url(#arrowhead)" class="messageLine0" style="fill:none"/></g><g><text x="775" y="948" class="messageText" style="text-anchor:middle">Adds &quot;ok-to-test&quot; label to PR</text><line x1="875" x2="675" y1="955" y2="955" stroke="#000" stroke-width="2" marker-end="url(#arrowhead)" class="messageLine0" style="fill:none"/></g><g><text x="2175" y="983" class="messageText" style="text-anchor:middle">Create presubmit prowJob</text><line x1="1875" x2="2475" y1="990" y2="990" stroke="#000" stroke-width="2" marker-end="url(#arrowhead)" class="messageLine0" style="fill:none"/></g><g><text x="2375" y="1018" class="messageText" style="text-anchor:middle">Run presubmit prowJob</text><line x1="2475" x2="2275" y1="1025" y2="1025" stroke="#000" stroke-width="2" marker-end="url(#arrowhead)" class="messageLine0" style="fill:none"/></g><g><text x="1475" y="1053" class="messageText" style="text-anchor:middle">Update PR &quot;statuses&quot; based on job exit code</text><line x1="2275" x2="675" y1="1060" y2="1060" stroke="#000" stroke-width="2" marker-end="url(#arrowhead)" class="messageLine0" style="fill:none"/></g><g><text x="575" y="1088" class="messageText" style="text-anchor:middle">Creates an &quot;/approved&quot; Comment</text><line x1="475" x2="675" y1="1095" y2="1095" stroke="#000" stroke-width="2" marker-end="url(#arrowhead)" class="messageLine0" style="fill:none"/></g><g><text x="875" y="1123" class="messageText" style="text-anchor:middle">Sends comment Event</text><line x1="675" x2="1075" y1="1130" y2="1130" stroke="#000" stroke-width="2" marker-end="url(#arrowhead)" class="messageLine0" style="fill:none"/></g><g><text x="1075" y="1158" class="messageText" style="text-anchor:middle">Analyzes if Approver can approve PR</text><path stroke="#000" stroke-width="2" marker-end="url(#arrowhead)" d="M 1075,1165 C 1135,1155 1135,1195 1075,1185" class="messageLine0" style="fill:none"/></g><g><text x="875" y="1223" class="messageText" style="text-anchor:middle">Adds an &quot;approved&quot; label to PR</text><line x1="1075" x2="675" y1="1230" y2="1230" stroke="#000" stroke-width="2" marker-end="url(#arrowhead)" class="messageLine0" style="fill:none"/></g><g><text x="1375" y="1258" class="messageText" style="text-anchor:middle">Checks if All Merge Labels Exist on PR</text><line x1="2075" x2="675" y1="1265" y2="1265" stroke="#000" stroke-width="2" marker-end="url(#arrowhead)" class="messageLine0" style="fill:none"/></g><g><text x="1375" y="1293" class="messageText" style="text-anchor:middle">Merges PR</text><line x1="2075" x2="675" y1="1300" y2="1300" stroke="#000" stroke-width="2" marker-end="url(#arrowhead)" class="messageLine0" style="fill:none"/></g><g><rect width="150" height="65" x="0" y="1320" fill="#eaeaea" stroke="#666" class="actor" rx="3" ry="3"/><text x="75" y="1352.5" alignment-baseline="central" class="actor" dominant-baseline="central" style="text-anchor:middle;font-size:14px;font-family:Open-Sans,sans-serif"><tspan x="75" dy="0">Contributor</tspan></text></g><g><rect width="150" height="65" x="200" y="1320" fill="#eaeaea" stroke="#666" class="actor" rx="3" ry="3"/><text x="275" y="1352.5" alignment-baseline="central" class="actor" dominant-baseline="central" style="text-anchor:middle;font-size:14px;font-family:Open-Sans,sans-serif"><tspan x="275" dy="0">Reviewer</tspan></text></g><g><rect width="150" height="65" x="400" y="1320" fill="#eaeaea" stroke="#666" class="actor" rx="3" ry="3"/><text x="475" y="1352.5" alignment-baseline="central" class="actor" dominant-baseline="central" style="text-anchor:middle;font-size:14px;font-family:Open-Sans,sans-serif"><tspan x="475" dy="0">Approver</tspan></text></g><g><rect width="150" height="65" x="600" y="1320" fill="#eaeaea" stroke="#666" class="actor" rx="3" ry="3"/><text x="675" y="1352.5" alignment-baseline="central" class="actor" dominant-baseline="central" style="text-anchor:middle;font-size:14px;font-family:Open-Sans,sans-serif"><tspan x="675" dy="0">GitHub</tspan></text></g><g><rect width="150" height="65" x="800" y="1320" fill="#eaeaea" stroke="#666" class="actor" rx="3" ry="3"/><text x="875" y="1352.5" alignment-baseline="central" class="actor" dominant-baseline="central" style="text-anchor:middle;font-size:14px;font-family:Open-Sans,sans-serif"><tspan x="875" dy="0">hook</tspan></text></g><g><rect width="150" height="65" x="1000" y="1320" fill="#eaeaea" stroke="#666" class="actor" rx="3" ry="3"/><text x="1075" y="1352.5" alignment-baseline="central" class="actor" dominant-baseline="central" style="text-anchor:middle;font-size:14px;font-family:Open-Sans,sans-serif"><tspan x="1075" dy="-7">approve</tspan></text><text x="1075" y="1352.5" alignment-baseline="central" class="actor" dominant-baseline="central" style="text-anchor:middle;font-size:14px;font-family:Open-Sans,sans-serif"><tspan x="1075" dy="7">(hook plugin)</tspan></text></g><g><rect width="150" height="65" x="1200" y="1320" fill="#eaeaea" stroke="#666" class="actor" rx="3" ry="3"/><text x="1275" y="1352.5" alignment-baseline="central" class="actor" dominant-baseline="central" style="text-anchor:middle;font-size:14px;font-family:Open-Sans,sans-serif"><tspan x="1275" dy="-7">size</tspan></text><text x="1275" y="1352.5" alignment-baseline="central" class="actor" dominant-baseline="central" style="text-anchor:middle;font-size:14px;font-family:Open-Sans,sans-serif"><tspan x="1275" dy="7">(hook plugin)</tspan></text></g><g><rect width="150" height="65" x="1400" y="1320" fill="#eaeaea" stroke="#666" class="actor" rx="3" ry="3"/><text x="1475" y="1352.5" alignment-baseline="central" class="actor" dominant-baseline="central" style="text-anchor:middle;font-size:14px;font-family:Open-Sans,sans-serif"><tspan x="1475" dy="-7">cla</tspan></text><text x="1475" y="1352.5" alignment-baseline="central" class="actor" dominant-baseline="central" style="text-anchor:middle;font-size:14px;font-family:Open-Sans,sans-serif"><tspan x="1475" dy="7">(hook plugin)</tspan></text></g><g><rect width="150" height="65" x="1600" y="1320" fill="#eaeaea" stroke="#666" class="actor" rx="3" ry="3"/><text x="1675" y="1352.5" alignment-baseline="central" class="actor" dominant-baseline="central" style="text-anchor:middle;font-size:14px;font-family:Open-Sans,sans-serif"><tspan x="1675" dy="-7">lgtm</tspan></text><text x="1675" y="1352.5" alignment-baseline="central" class="actor" dominant-baseline="central" style="text-anchor:middle;font-size:14px;font-family:Open-Sans,sans-serif"><tspan x="1675" dy="7">(hook plugin)</tspan></text></g><g><rect width="150" height="65" x="1800" y="1320" fill="#eaeaea" stroke="#666" class="actor" rx="3" ry="3"/><text x="1875" y="1352.5" alignment-baseline="central" class="actor" dominant-baseline="central" style="text-anchor:middle;font-size:14px;font-family:Open-Sans,sans-serif"><tspan x="1875" dy="-7">trigger</tspan></text><text x="1875" y="1352.5" alignment-baseline="central" class="actor" dominant-baseline="central" style="text-anchor:middle;font-size:14px;font-family:Open-Sans,sans-serif"><tspan x="1875" dy="7">(hook plugin)</tspan></text></g><g><rect width="150" height="65" x="2000" y="1320" fill="#eaeaea" stroke="#666" class="actor" rx="3" ry="3"/><text x="2075" y="1352.5" alignment-baseline="central" class="actor" dominant-baseline="central" style="text-anchor:middle;font-size:14px;font-family:Open-Sans,sans-serif"><tspan x="2075" dy="0">tide</tspan></text></g><g><rect width="150" height="65" x="2200" y="1320" fill="#eaeaea" stroke="#666" class="actor" rx="3" ry="3"/><text x="2275" y="1352.5" alignment-baseline="central" class="actor" dominant-baseline="central" style="text-anchor:middle;font-size:14px;font-family:Open-Sans,sans-serif"><tspan x="2275" dy="0">prowJob</tspan></text></g><g><rect width="150" height="65" x="2400" y="1320" fill="#eaeaea" stroke="#666" class="actor" rx="3" ry="3"/><text x="2475" y="1352.5" alignment-baseline="central" class="actor" dominant-baseline="central" style="text-anchor:middle;font-size:14px;font-family:Open-Sans,sans-serif"><tspan x="2475" dy="-7">Kubernetes</tspan></text><text x="2475" y="1352.5" alignment-baseline="central" class="actor" dominant-baseline="central" style="text-anchor:middle;font-size:14px;font-family:Open-Sans,sans-serif"><tspan x="2475" dy="7">API Server</tspan></text></g></svg>